<svg width="171" height="120" viewBox="0 0 171 120" fill="none" xmlns="http://www.w3.org/2000/svg">
<path d="M171 105.454H0V105.537H171V105.454Z" fill="#EBEBEB"/>
<path d="M153.866 110.637H142.539V110.72H153.866V110.637Z" fill="#EBEBEB"/>
<path d="M113.277 111.513H110.305V111.596H113.277V111.513Z" fill="#EBEBEB"/>
<path d="M142.196 107.648H135.633V107.731H142.196V107.648Z" fill="#EBEBEB"/>
<path d="M32.7124 108.189H17.9414V108.272H32.7124V108.189Z" fill="#EBEBEB"/>
<path d="M37.9241 108.189H35.7593V108.272H37.9241V108.189Z" fill="#EBEBEB"/>
<path d="M77.001 109.548H44.9624V109.631H77.001V109.548Z" fill="#EBEBEB"/>
<path d="M81.0538 91.0887H15.017C14.4997 91.0878 14.0039 90.8937 13.6384 90.5489C13.2729 90.2041 13.0676 89.7367 13.0676 89.2495V1.82306C13.0721 1.33864 13.2794 0.87545 13.6444 0.534105C14.0094 0.192761 14.5026 0.000829844 15.017 0H81.0538C81.5717 0 82.0684 0.193769 82.4347 0.53868C82.8009 0.88359 83.0066 1.35139 83.0066 1.83917V89.2495C83.0066 89.7373 82.8009 90.2051 82.4347 90.55C82.0684 90.8949 81.5717 91.0887 81.0538 91.0887ZM15.017 0.0644194C14.5224 0.0652726 14.0483 0.250934 13.6988 0.580651C13.3494 0.910368 13.1531 1.3572 13.1531 1.82306V89.2495C13.1531 89.7154 13.3494 90.1622 13.6988 90.4919C14.0483 90.8217 14.5224 91.0073 15.017 91.0082H81.0538C81.5488 91.0073 82.0232 90.8218 82.3732 90.4921C82.7232 90.1625 82.9202 89.7157 82.9211 89.2495V1.82306C82.9202 1.3569 82.7232 0.910079 82.3732 0.580454C82.0232 0.250829 81.5488 0.0652708 81.0538 0.0644194H15.017Z" fill="#EBEBEB"/>
<path d="M155.032 91.0887H88.9921C88.4745 91.0878 87.9783 90.8938 87.6123 90.5491C87.2462 90.2044 87.0402 89.737 87.0393 89.2495V1.82306C87.0447 1.33834 87.2527 0.875159 87.6183 0.533904C87.9838 0.192648 88.4774 0.000820794 88.9921 0H155.032C155.546 0.00167635 156.038 0.193982 156.403 0.535236C156.767 0.876489 156.974 1.33919 156.978 1.82306V89.2495C156.978 89.7362 156.774 90.203 156.409 90.5477C156.044 90.8925 155.549 91.087 155.032 91.0887ZM88.9921 0.0644194C88.4972 0.0652708 88.0227 0.250829 87.6727 0.580454C87.3227 0.910079 87.1257 1.3569 87.1248 1.82306V89.2495C87.1257 89.7157 87.3227 90.1625 87.6727 90.4921C88.0227 90.8218 88.4972 91.0073 88.9921 91.0082H155.032C155.527 91.0073 156.002 90.8218 156.352 90.4921C156.702 90.1625 156.899 89.7157 156.9 89.2495V1.82306C156.899 1.3569 156.702 0.910079 156.352 0.580454C156.002 0.250829 155.527 0.0652708 155.032 0.0644194H88.9921Z" fill="#EBEBEB"/>
<path d="M134.433 6.81555H34.6411V50.7881H134.433V6.81555Z" fill="#E6E6E6"/>
<path d="M135.935 6.81555H35.3423V50.7881H135.935V6.81555Z" fill="#F0F0F0"/>
<path d="M134.433 50.7881H34.6411V53.0299H134.433V50.7881Z" fill="#E6E6E6"/>
<path d="M138.439 50.7881H37.8462V53.0299H138.439V50.7881Z" fill="#F0F0F0"/>
<path d="M133.832 48.8072V8.79965L37.4491 8.79965V48.8072L133.832 48.8072Z" fill="#FAFAFA"/>
<path d="M47.7871 48.8072L53.6456 8.79965H62.7872L56.9288 48.8072H47.7871Z" fill="white"/>
<path d="M38.4205 46.8327C38.3806 46.8327 38.3423 46.8178 38.3141 46.7912C38.2859 46.7646 38.27 46.7286 38.27 46.691V10.088C38.27 10.0505 38.2859 10.0144 38.3141 9.98783C38.3423 9.96125 38.3806 9.94632 38.4205 9.94632C38.4403 9.94632 38.4598 9.94999 38.4781 9.95711C38.4963 9.96423 38.5129 9.97467 38.5269 9.98783C38.5409 10.001 38.552 10.0166 38.5595 10.0338C38.5671 10.051 38.571 10.0694 38.571 10.088V46.7039C38.5683 46.7395 38.5512 46.7727 38.5232 46.7967C38.4952 46.8208 38.4584 46.8336 38.4205 46.8327Z" fill="#F0F0F0"/>
<path d="M58.8926 48.8072L64.751 8.79965H68.3147L62.4562 48.8072H58.8926Z" fill="white"/>
<path d="M133.832 48.8072V8.79965H133.565V48.8072H133.832Z" fill="#E6E6E6"/>
<path opacity="0.6" d="M136.43 11.7887H36.6417L36.4468 9.56949H136.239L136.43 11.7887Z" fill="#EBEBEB"/>
<path opacity="0.6" d="M136.43 15.4252H36.6417L36.4468 13.2059H136.239L136.43 15.4252Z" fill="#EBEBEB"/>
<path opacity="0.6" d="M136.43 19.0649H36.6417L36.4468 16.8456H136.239L136.43 19.0649Z" fill="#EBEBEB"/>
<path opacity="0.6" d="M136.43 22.7013H36.6417L36.4468 20.4821H136.239L136.43 22.7013Z" fill="#EBEBEB"/>
<path opacity="0.6" d="M136.43 26.341H36.6417L36.4468 24.1217H136.239L136.43 26.341Z" fill="#EBEBEB"/>
<path opacity="0.6" d="M136.43 29.9775H36.6417L36.4468 27.7582H136.239L136.43 29.9775Z" fill="#EBEBEB"/>
<path d="M150.138 61.8424H134.909V105.454H150.138V61.8424Z" fill="#E6E6E6"/>
<path d="M146.072 105.454H150.138V99.4342H141.807L146.072 105.454Z" fill="#FAFAFA"/>
<path d="M108.616 61.8424H93.3867V105.454H108.616V61.8424Z" fill="#E6E6E6"/>
<path d="M150.138 61.8424H105.066V103.383H150.138V61.8424Z" fill="#FAFAFA"/>
<path d="M109.132 105.454H105.066V99.4342H113.397L109.132 105.454Z" fill="#FAFAFA"/>
<path d="M146.981 77.3223H108.219V87.7164H146.981V77.3223Z" fill="#F0F0F0"/>
<path d="M146.981 89.9388H108.219V100.333H146.981V89.9388Z" fill="#F0F0F0"/>
<path d="M114.31 76.4204H140.903V76.9261C140.903 77.325 140.735 77.7076 140.436 77.9897C140.136 78.2718 139.73 78.4303 139.306 78.4303H115.91C115.487 78.4303 115.08 78.2718 114.781 77.9897C114.481 77.7076 114.313 77.325 114.313 76.9261V76.4204H114.31Z" fill="#FAFAFA"/>
<path d="M146.981 64.7026H108.219V75.0966H146.981V64.7026Z" fill="#F0F0F0"/>
<path d="M114.31 63.8039H140.903V64.3096C140.903 64.7085 140.735 65.0911 140.436 65.3732C140.136 65.6553 139.73 65.8138 139.306 65.8138H115.91C115.487 65.8138 115.08 65.6553 114.781 65.3732C114.481 65.0911 114.313 64.7085 114.313 64.3096V63.8039H114.31Z" fill="#FAFAFA"/>
<path d="M114.31 89.037H140.903V89.5426C140.903 89.9416 140.735 90.3242 140.436 90.6063C140.136 90.8884 139.73 91.0468 139.306 91.0468H115.91C115.487 91.0468 115.08 90.8884 114.781 90.6063C114.481 90.3242 114.313 89.9416 114.313 89.5426V89.037H114.31Z" fill="#FAFAFA"/>
<path d="M18.2699 71.1412C19.118 68.8447 25.7939 71.9658 28.5299 75.7665C30.339 78.2982 31.4437 81.0006 31.9499 84.6306C31.8883 80.4885 31.8199 76.0403 31.7515 71.8402C31.2009 70.7934 29.9457 68.3777 29.0463 66.4644C26.0367 60.0805 18.882 57.7034 16.3923 53.674C13.1535 48.3916 13.1741 40.4681 15.9306 37.6143C18.3246 35.1277 26.259 51.925 27.155 53.8028C30.233 60.2447 31.1222 65.0472 31.6968 69.6886C31.6318 65.7429 31.5702 62.1226 31.5189 59.3268C31.3514 50.2115 31.1393 47.2804 31.0436 46.3785C30.7016 45.9373 30.3219 45.4122 30.0928 45.1481C28.1742 42.8194 23.9129 40.0493 21.7856 36.6641C18.6768 31.7232 19.1796 25.8095 21.3581 23.6064C23.6564 21.3034 27.7022 26.7339 29.826 32.1387C31.9499 37.5434 31.0504 42.6905 31.6523 47.1709C31.7789 48.047 31.9054 51.3839 32.0285 56.0124C32.6783 51.0328 33.9711 47.6959 36.3651 44.5877C39.3131 40.7644 41.8576 36.1101 44.2858 36.7124C46.714 37.3147 45.4076 43.4764 43.4855 47.799C41.7755 51.648 33.335 55.4906 32.0901 58.586C32.2371 64.8604 32.3671 72.8065 32.4629 80.205C33.1263 76.3817 32.6681 76.0629 35.3972 70.2201C37.0183 66.7414 43.6634 62.4543 44.4568 64.8443C45.2502 67.2342 44.043 71.75 41.5361 74.913C39.5115 77.4672 35.0381 77.464 33.9813 79.0455C33.7385 79.4159 32.9553 80.8331 32.48 81.6448C32.586 90.6796 32.6373 98.6514 32.5826 101.37L32.1448 101.399C32.1687 100.697 32.114 96.1004 32.0285 90.0193C30.9375 86.7983 23.5982 84.898 21.3308 81.5321C18.9573 78.0019 17.2507 73.8919 18.2699 71.1412Z" fill="#E6E6E6"/>
<path d="M25.171 105.454H39.2614C39.6347 105.454 39.9964 105.332 40.2856 105.11C40.5747 104.888 40.7734 104.578 40.8483 104.233L41.8469 99.5889H22.5718L23.5978 104.233C23.6721 104.576 23.8689 104.884 24.1552 105.106C24.4415 105.328 24.8 105.451 25.171 105.454Z" fill="#F0F0F0"/>
<path d="M22.1817 101.389H42.2502C42.483 101.389 42.7075 101.308 42.8809 101.162C43.0544 101.016 43.1647 100.815 43.1907 100.597L43.6011 97.1634C43.6155 97.0389 43.6019 96.913 43.5613 96.7938C43.5206 96.6746 43.4537 96.5648 43.365 96.4715C43.2763 96.3782 43.1677 96.3036 43.0464 96.2524C42.925 96.2013 42.7936 96.1748 42.6606 96.1746H21.7713C21.6383 96.1748 21.5069 96.2013 21.3855 96.2524C21.2642 96.3036 21.1556 96.3782 21.0669 96.4715C20.9782 96.5648 20.9113 96.6746 20.8706 96.7938C20.83 96.913 20.8164 97.0389 20.8308 97.1634L21.2412 100.597C21.2672 100.815 21.3775 101.016 21.551 101.162C21.7244 101.308 21.9489 101.389 22.1817 101.389Z" fill="#F0F0F0"/>
<path d="M60.8211 84.5889H48.7793V105.454H60.8211V84.5889Z" fill="#E0E0E0"/>
<path d="M91.5123 105.454H51.1939L46.9565 77.1419H87.2749L91.5123 105.454Z" fill="#E6E6E6"/>
<path d="M97.3947 105.454H52.7945L48.5605 77.1419H93.1573L97.3947 105.454Z" fill="#F0F0F0"/>
<path d="M57.1584 101.029L53.5913 81.5675H88.7934L92.3604 101.029H57.1584Z" fill="white"/>
<path d="M72.2854 101.029L60.3223 81.5675H64.074L76.0406 101.029H72.2854Z" fill="#FAFAFA"/>
<path d="M77.6306 101.029L65.6641 81.5675H72.0663L84.0295 101.029H77.6306Z" fill="#FAFAFA"/>
<path d="M85.4998 120C122.122 120 151.81 118.368 151.81 116.354C151.81 114.34 122.122 112.708 85.4998 112.708C48.8776 112.708 19.1895 114.34 19.1895 116.354C19.1895 118.368 48.8776 120 85.4998 120Z" fill="#F5F5F5"/>
<path opacity="0.1" d="M97.2237 39.9416L71.9946 70.3197C71.2016 71.2736 70.6679 72.4158 70.4449 73.6361C70.222 74.8563 70.3173 76.1134 70.7217 77.2861C71.1261 78.4588 71.8259 79.5074 72.7537 80.3308C73.6814 81.1543 74.8057 81.7247 76.0181 81.987L116.957 90.836C118.237 91.1137 119.569 91.0377 120.81 90.616C122.05 90.1942 123.152 89.4428 123.998 88.4423C124.844 87.4417 125.402 86.2297 125.611 84.9364C125.82 83.643 125.674 82.3171 125.187 81.1007L109.491 41.869C109.028 40.7049 108.269 39.6815 107.29 38.8997C106.31 38.1178 105.144 37.6044 103.907 37.4099C102.669 37.2155 101.402 37.3466 100.23 37.7905C99.058 38.2344 98.022 38.9758 97.2237 39.9416Z" fill="#263238"/>
<path opacity="0.1" d="M41.0628 44.1996L32.2749 67.8859C32.0117 68.609 31.9359 69.3871 32.0545 70.1474C32.1731 70.9078 32.4823 71.6257 32.9533 72.2343C33.4243 72.843 34.0417 73.3224 34.7479 73.628C35.4542 73.9336 36.2264 74.0555 36.9924 73.9822L62.6577 71.4639C63.4744 71.3842 64.2544 71.0854 64.9155 70.5991C65.5765 70.1129 66.094 69.4572 66.4134 68.7013C66.7327 67.9454 66.8421 67.1173 66.7299 66.3044C66.6178 65.4915 66.2883 64.724 65.7761 64.0828L48.8942 42.9334C48.3898 42.3039 47.7275 41.8195 46.9747 41.5297C46.2219 41.2399 45.4057 41.155 44.6094 41.2837C43.8132 41.4125 43.0653 41.7502 42.4422 42.2625C41.8191 42.7748 41.3431 43.4432 41.0628 44.1996Z" fill="#263238"/>
<path d="M105.927 32.2931L82.3392 66.526C81.6025 67.5953 81.1525 68.8357 81.0323 70.1286C80.9121 71.4215 81.1258 72.7237 81.6528 73.9104C82.1798 75.0971 83.0026 76.1288 84.0424 76.9066C85.0821 77.6844 86.3041 78.1823 87.5914 78.3527L130.95 84.1254C132.313 84.307 133.701 84.1145 134.963 83.5684C136.226 83.0224 137.317 82.1433 138.118 81.0253C138.92 79.9073 139.402 78.5923 139.514 77.2212C139.626 75.8501 139.363 74.4744 138.753 73.2413L118.982 33.2217C118.396 32.0361 117.509 31.0245 116.411 30.2873C115.312 29.5502 114.04 29.113 112.721 29.0191C111.401 28.9253 110.08 29.178 108.888 29.7524C107.697 30.3267 106.676 31.2026 105.927 32.2931Z" fill="#3367EE"/>
<path d="M88.6184 75.2952C87.8353 75.1887 87.0907 74.8903 86.4509 74.4263C85.8111 73.9624 85.2959 73.3475 84.9513 72.6363C84.5959 71.964 84.4289 71.2082 84.4677 70.4488C84.5065 69.6894 84.7497 68.9546 85.1717 68.322L108.82 33.986C109.248 33.3736 109.839 32.8939 110.527 32.6019C111.215 32.31 111.97 32.2176 112.708 32.3354C113.491 32.441 114.236 32.7392 114.876 33.2032C115.516 33.6672 116.031 34.2826 116.375 34.9943L136.183 75.1123C136.539 75.7846 136.706 76.5404 136.667 77.2998C136.628 78.0592 136.385 78.794 135.963 79.4266C135.536 80.0403 134.945 80.5213 134.257 80.8141C133.57 81.1069 132.813 81.1998 132.075 81.082L88.6184 75.2952Z" fill="white"/>
<path d="M110.696 44.4716L113.458 44.8374C114.322 44.9592 115.111 45.3946 115.674 46.0606C116.237 46.7265 116.535 47.5765 116.511 48.4482L116.324 52.0497C116.319 52.1803 116.305 52.3104 116.282 52.4389L114.317 63.295C114.176 64.0432 113.749 64.7069 113.126 65.1448C112.503 65.5828 111.734 65.7603 110.982 65.6397C110.185 65.5263 109.449 65.1461 108.894 64.5612C108.34 63.9762 108 63.2208 107.93 62.418L107.137 51.2009C107.128 51.0714 107.128 50.9413 107.137 50.8117L107.32 47.2055C107.34 46.7959 107.446 46.395 107.631 46.0292C107.817 45.6633 108.077 45.3408 108.396 45.0827C108.715 44.8246 109.085 44.6368 109.481 44.5314C109.877 44.4261 110.292 44.4057 110.696 44.4716ZM110.476 68.6503L111.226 68.7488C111.999 68.8579 112.705 69.2474 113.209 69.8433C113.713 70.4391 113.981 71.1996 113.96 71.9798C113.944 72.3477 113.85 72.708 113.684 73.037C113.519 73.366 113.285 73.6562 113 73.8887C112.714 74.1212 112.383 74.2907 112.027 74.386C111.671 74.4813 111.299 74.5003 110.936 74.4417L110.185 74.3386C109.413 74.2305 108.707 73.8419 108.203 73.2469C107.699 72.6518 107.431 71.892 107.451 71.1122C107.467 70.7441 107.561 70.3834 107.726 70.0541C107.891 69.7247 108.125 69.4341 108.41 69.2015C108.696 68.9688 109.028 68.7994 109.384 68.7044C109.74 68.6094 110.112 68.591 110.476 68.6503Z" fill="#3367EE"/>
<path d="M50.1322 37.5265L43.6561 62.0851C43.4608 62.8313 43.4581 63.615 43.6482 64.3625C43.8383 65.1101 44.2151 65.7973 44.7431 66.3595C45.2712 66.9218 45.9334 67.3409 46.6676 67.5775C47.4018 67.8141 48.184 67.8605 48.9411 67.7124L74.0623 62.8119C74.8594 62.653 75.5994 62.2838 76.2058 61.7426C76.8122 61.2014 77.2628 60.508 77.5111 59.7341C77.7593 58.9602 77.7961 58.134 77.6177 57.3411C77.4392 56.5482 77.052 55.8174 76.4962 55.2244L57.8697 35.5523C57.3111 34.9587 56.6036 34.5255 55.8209 34.298C55.0381 34.0704 54.2087 34.0566 53.4189 34.2582C52.6291 34.4597 51.9076 34.8691 51.3296 35.4439C50.7516 36.0187 50.3381 36.7378 50.1322 37.5265Z" fill="#3367EE"/>
<path d="M48.8896 65.7334C48.4283 65.8169 47.9534 65.7825 47.5091 65.6332C47.0647 65.484 46.6653 65.2249 46.3479 64.88C46.0204 64.5477 45.7838 64.1369 45.6606 63.6869C45.5375 63.2369 45.5319 62.7629 45.6445 62.3102L52.1346 37.686C52.2472 37.2557 52.4798 36.8663 52.8052 36.5632C53.1307 36.2602 53.5357 36.0559 53.9729 35.9743C54.4345 35.8919 54.9095 35.9273 55.3538 36.0773C55.7982 36.2273 56.1974 36.4871 56.5146 36.8325L75.2066 56.5281C75.5345 56.8602 75.7718 57.2708 75.8958 57.7207C76.0197 58.1706 76.0263 58.6447 75.9147 59.0979C75.8014 59.5273 75.5685 59.9157 75.2431 60.2179C74.9177 60.5201 74.5131 60.7236 74.0765 60.8048L48.8896 65.7334Z" fill="white"/>
<path d="M55.1923 43.468L56.7914 43.1538C57.3077 43.0705 57.8366 43.181 58.2763 43.4641C58.7161 43.7472 59.0356 44.1828 59.1736 44.6873L59.7457 46.8304C59.7674 46.9091 59.7846 46.9889 59.7973 47.0695L60.8149 53.8176C60.8942 54.2719 60.7909 54.7392 60.5274 55.1177C60.2639 55.4962 59.8616 55.7554 59.4081 55.8388C58.9324 55.9177 58.4441 55.8314 58.0243 55.5943C57.6045 55.3571 57.2786 54.9833 57.1009 54.5351L54.5029 48.12C54.4714 48.0452 54.4448 47.9684 54.4232 47.8902L53.8323 45.7424C53.7555 45.5037 53.7305 45.2513 53.759 45.0021C53.7874 44.7529 53.8687 44.5126 53.9975 44.2974C54.1262 44.0821 54.2993 43.8968 54.5054 43.7538C54.7114 43.6108 54.9456 43.5133 55.1923 43.468ZM59.7176 57.6676L60.1537 57.5832C60.6162 57.5031 61.0919 57.5993 61.4869 57.8528C61.8819 58.1063 62.1675 58.4987 62.2874 58.9525C62.3535 59.1639 62.3743 59.3868 62.3484 59.6067C62.3226 59.8266 62.2507 60.0386 62.1374 60.2288C62.0241 60.4191 61.872 60.5834 61.691 60.7109C61.51 60.8384 61.3042 60.9264 61.0869 60.969L60.6508 61.0534C60.1889 61.1337 59.7137 61.0381 59.3188 60.7856C58.9239 60.533 58.6379 60.1417 58.5171 59.6888C58.451 59.4771 58.4302 59.254 58.456 59.0338C58.4818 58.8136 58.5536 58.6012 58.6668 58.4106C58.78 58.22 58.9321 58.0553 59.1131 57.9273C59.2942 57.7993 59.5001 57.7108 59.7176 57.6676Z" fill="#3367EE"/>
</svg>
